<?xml version="1.0" standalone="no"?>
<!DOCTYPE svg PUBLIC "-//W3C//DTD SVG 20010904//EN"
 "http://www.w3.org/TR/2001/REC-SVG-20010904/DTD/svg10.dtd">
<svg version="1.0" xmlns="http://www.w3.org/2000/svg"
 width="697.000000pt" height="361.000000pt" viewBox="0 0 697.000000 361.000000"
 preserveAspectRatio="xMidYMid meet">
<metadata>
Created by potrace 1.16, written by Peter Selinger 2001-2019
</metadata>
<g transform="translate(0.000000,361.000000) scale(0.100000,-0.100000)"
fill="#000000" stroke="none">
<path d="M2305 2587 c-16 -13 -17 -17 -6 -31 11 -13 33 -16 108 -16 90 0 96
-1 123 -28 33 -33 26 -3 150 -642 123 -631 127 -646 162 -686 16 -18 46 -44
66 -56 l37 -23 655 -3 c555 -2 658 0 675 12 16 12 17 16 6 30 -12 14 -84 16
-671 18 -650 3 -659 3 -687 24 -48 35 -70 79 -87 171 -9 49 -16 96 -16 105 0
17 44 18 699 20 l699 3 43 30 c24 17 51 45 62 62 24 41 177 683 177 742 0 55
-27 103 -72 131 -32 19 -53 20 -919 20 l-886 0 -18 40 c-29 64 -71 84 -185 88
-72 3 -100 0 -115 -11z m2113 -199 c36 -40 35 -65 -13 -268 -25 -107 -59 -256
-76 -330 -36 -156 -55 -200 -102 -229 -34 -21 -41 -21 -729 -21 l-695 0 -11
53 c-6 28 -40 205 -77 392 -36 187 -69 357 -74 377 -5 20 -6 40 -3 43 3 3 400
5 882 5 l877 0 21 -22z"/>
<path d="M2910 959 c-32 -13 -78 -56 -96 -91 -18 -34 -18 -119 0 -161 31 -74
123 -118 204 -97 62 15 96 42 121 93 47 97 2 221 -92 256 -35 13 -103 13 -137
0z m155 -82 c45 -45 53 -92 26 -145 -33 -65 -108 -91 -171 -59 -33 16 -70 73
-70 107 0 81 50 130 134 130 41 0 53 -5 81 -33z"/>
<path d="M4045 963 c-35 -9 -84 -53 -105 -93 -38 -75 -21 -161 43 -217 32 -28
90 -53 122 -53 34 0 92 26 125 56 68 62 76 164 19 246 -37 51 -129 79 -204 61z
m133 -69 c32 -22 52 -67 52 -115 0 -35 -6 -48 -39 -80 -32 -33 -45 -39 -80
-39 -85 0 -131 46 -131 131 0 45 4 55 34 85 30 30 40 34 88 34 32 0 62 -6 76
-16z"/>
</g>
</svg>
